:FULLY-SPECIFIED
:FORCE-ALL-JOINTS-BE-3DOF
:DEGREES
68
root 5.9168 16.7699 -28.0981 11.314 2.88919 -3.89996
lfemur -36.3858 15.9722 -18.0165
ltibia 53.4239 -0 0
lfoot -21.2451 -10.8329 0.00843857
ltoes 31.0983 -0 0
rfemur -17.3851 -0.0235731 21.9697
rtibia 30.256 -0 0
rfoot -26.0968 -18.4517 -0.00462716
rtoes -10.5453 0 0
lowerback -3.72576 2.51133 3.28174
upperback -1.47644 3.2359 -0.159251
thorax 0.759463 1.61243 -1.85545
lowerneck -9.97843 -2.41689 2.24923
upperneck -5.69248 -3.37772 1.98161
head -0.128598 -1.70848 0.147195
lclavicle 1.39377e-15 -5.27793e-15 -1.6105e-30
lhumerus -40.457 -11.5334 93.7681
lradius 43.9879 -0 0
lwrist 7.91769 0 0
lhand -13.587 1.82513 0.00609542
lfingers 7.12502 -0 0
lthumb 12.5268 31.4212 0.00414449
rclavicle 1.39377e-15 -5.27793e-15 -1.6105e-30
rhumerus -38.9857 2.43547 -91.9242
rradius 42.0914 -0 0
rwrist 8.58698 0 0
rhand -25.1765 -21.6439 -0.0004561
rfingers 7.12502 -0 0
rthumb 1.34107 -51.6195 -0.000439446
69
root 5.92845 16.7715 -28.0785 11.455 2.92705 -4.01034
lfemur -37.0841 16.2219 -17.8704
ltibia 53.6475 -0 0
lfoot -21.199 -9.99406 0.00182195
ltoes 30.1557 -0 0
rfemur -17.3853 0.154344 22.0475
rtibia 30.1228 -0 0
rfoot -25.8063 -18.665 -0.00372685
rtoes -11.1863 0 0
lowerback -3.76715 2.56911 3.25713
upperback -1.5235 3.31284 -0.120079
thorax 0.735199 1.65008 -1.79736
lowerneck -10.0078 -2.44339 2.33399
upperneck -5.74418 -3.42156 1.92265
head -0.142573 -1.73268 0.114687
lclavicle -4.84251e-15 -9.36315e-15 -1.121e-30
lhumerus -40.519 -11.085 93.5845
lradius 44.0043 -0 0
lwrist 8.02412 0 0
lhand -14.2178 1.69061 0.0047087
lfingers 7.12502 -0 0
lthumb 11.9187 31.325 0.00322471
rclavicle -4.84251e-15 -9.36315e-15 -1.121e-30
rhumerus -38.7612 2.75132 -91.8608
rradius 42.0156 -0 0
rwrist 8.98587 0 0
rhand -25.2363 -21.5133 -0.000319095
rfingers 7.12502 -0 0
rthumb 1.28335 -51.4893 -0.000307469
70
root 5.94146 16.7726 -28.0567 11.6057 2.96994 -4.12065
lfemur -37.7372 16.3951 -17.7011
ltibia 53.7513 -0 0
lfoot -21.1372 -9.05931 -0.00149546
ltoes 29.1949 -0 0
rfemur -17.3857 0.318083 22.1227
rtibia 29.9858 -0 0
rfoot -25.5745 -18.8713 -0.00200918
rtoes -11.7036 0 0
lowerback -3.83043 2.63033 3.22628
upperback -1.57771 3.39389 -0.0833471
thorax 0.715471 1.68987 -1.73699
lowerneck -10.0404 -2.47626 2.41962
upperneck -5.78299 -3.47435 1.86781
head -0.152072 -1.76112 0.0828097
lclavicle -9.33595e-15 -1.25356e-14 -4.3235e-31
lhumerus -40.5963 -10.6758 93.4045
lradius 44.0222 -0 0
lwrist 8.12786 0 0
lhand -14.7444 1.57547 0.00240052
lfingers 7.12502 -0 0
lthumb 11.411 31.2419 0.00166795
rclavicle -9.33595e-15 -1.25356e-14 -4.3235e-31
rhumerus -38.5465 3.02386 -91.7864
rradius 41.9633 -0 0
rwrist 9.3029 0 0
rhand -25.2801 -21.4135 -0.000120835
rfingers 7.12502 -0 0
rthumb 1.24103 -51.3897 -0.000116477
71
root 5.95592 16.7725 -28.0329 11.762 3.02456 -4.23384
lfemur -38.3353 16.4833 -17.4987
ltibia 53.7365 0 0
lfoot -21.0139 -8.06127 0
ltoes 28.2401 0 0
rfemur -17.3841 0.448621 22.1998
rtibia 29.8487 0 0
rfoot -25.4326 -19.0615 0
rtoes -12.0519 0 0
lowerback -3.91329 2.69625 3.19595
upperback -1.63846 3.48055 -0.04948
thorax 0.699906 1.73256 -1.67835
lowerneck -10.077 -2.51901 2.50017
upperneck -5.80727 -3.54008 1.82153
head -0.15636 -1.79564 0.0536981
lclavicle -1.10325e-14 -1.41137e-14 0
lhumerus -40.688 -10.3323 93.2334
lradius 44.0463 0 0
lwrist 8.22233 0 0
lhand -15.1037 1.48866 0
lfingers 7.12502 0 0
lthumb 11.0647 31.177 0
rclavicle -1.10325e-14 -1.41137e-14 0
rhumerus -38.3535 3.24127 -91.7011
rradius 41.9544 0 0
rwrist 9.48337 0 0
rhand -25.2967 -21.365 0
rfingers 7.12502 0 0
rthumb 1.22504 -51.3413 0
72
root 5.97117 16.7717 -28.0072 11.9684 3.08597 -4.34434
lfemur -38.9277 16.4942 -17.2848
ltibia 53.5617 -0 0
lfoot -20.8428 -6.87956 0.0047162
ltoes 27.217 -0 0
rfemur -17.4296 0.604693 22.274
rtibia 29.7147 -0 0
rfoot -25.372 -19.2889 0.00277626
rtoes -12.2182 0 0
lowerback -4.05578 2.76783 3.15184
upperback -1.71758 3.57334 -0.0229711
thorax 0.69809 1.7785 -1.61605
lowerneck -10.1225 -2.5703 2.58258
upperneck -5.81545 -3.61784 1.78305
head -0.154256 -1.83588 0.0259696
lclavicle -9.20751e-15 -1.40726e-14 -6.63857e-32
lhumerus -40.7959 -10.054 93.0653
lradius 44.0699 -0 0
lwrist 8.30758 0 0
lhand -15.3288 1.42178 -0.00227547
lfingers 7.12502 -0 0
lthumb 10.8478 31.1244 -0.00160317
rclavicle -9.20751e-15 -1.40726e-14 -6.63857e-32
rhumerus -38.1682 3.39916 -91.614
rradius 41.9736 -0 0
rwrist 9.52461 0 0
rhand -25.3064 -21.3888 -0.000293692
rfingers 7.12502 -0 0
rthumb 1.21572 -51.3653 -0.000292085
73
root 5.9869 16.7709 -27.9796 12.2433 3.14673 -4.44758
lfemur -39.5397 16.4381 -17.0732
ltibia 53.2122 -0 0
lfoot -20.6692 -5.44508 0.00940578
ltoes 26.0791 -0 0
rfemur -17.5406 0.822883 22.3394
rtibia 29.5813 -0 0
rfoot -25.3622 -19.5793 0.00650083
rtoes -12.2385 0 0
lowerback -4.27337 2.84407 3.08298
upperback -1.8196 3.67111 -0.00501115
thorax 0.713566 1.8271 -1.54468
lowerneck -10.1782 -2.62653 2.6745
upperneck -5.80846 -3.70373 1.74816
head -0.146016 -1.88006 -0.00274086
lclavicle -4.55637e-15 -1.30097e-14 -4.38148e-31
lhumerus -40.9211 -9.81726 92.8933
lradius 44.0863 -0 0
lwrist 8.38946 0 0
lhand -15.4869 1.36406 -0.00452431
lfingers 7.12502 -0 0
lthumb 10.6954 31.0773 -0.00316363
rclavicle -4.55637e-15 -1.30097e-14 -4.38148e-31
rhumerus -37.9754 3.50653 -91.5286
rradius 41.9982 -0 0
rwrist 9.47434 0 0
rhand -25.3259 -21.4735 -0.00107024
rfingers 7.12502 -0 0
rthumb 1.19679 -51.4505 -0.00106185
74
root 6.00373 16.7697 -27.9498 12.5436 3.20966 -4.548
lfemur -40.1252 16.3107 -16.8429
ltibia 52.7288 -0 0
lfoot -20.4944 -3.86732 0.0124114
ltoes 24.8926 -0 0
rfemur -17.6687 1.05084 22.399
rtibia 29.4444 -0 0
rfoot -25.4013 -19.8824 0.00991697
rtoes -12.141 0 0
lowerback -4.52682 2.92342 3.00124
upperback -1.93291 3.77282 0.00895375
thorax 0.736892 1.87771 -1.46829
lowerneck -10.2389 -2.68784 2.771
upperneck -5.7884 -3.79729 1.71607
head -0.133058 -1.92794 -0.031774
lclavicle 1.84493e-15 -1.11771e-14 -8.4825e-31
lhumerus -41.0615 -9.61393 92.7215
lradius 44.1009 -0 0
lwrist 8.47013 0 0
lhand -15.5659 1.3209 -0.00625232
lfingers 7.12502 -0 0
lthumb 10.6193 31.0401 -0.00435261
rclavicle 1.84493e-15 -1.11771e-14 -8.4825e-31
rhumerus -37.7853 3.57164 -91.4365
rradius 42.0368 -0 0
rwrist 9.35346 0 0
rhand -25.3389 -21.5915 -0.00203812
rfingers 7.12502 -0 0
rthumb 1.18428 -51.569 -0.00201916
75
root 6.02231 16.768 -27.9178 12.8261 3.27744 -4.65011
lfemur -40.6383 16.1075 -16.5728
ltibia 52.1526 -0 0
lfoot -20.3197 -2.25579 0.0128012
ltoes 23.724 -0 0
rfemur -17.7657 1.2361 22.4565
rtibia 29.2995 -0 0
rfoot -25.4876 -20.148 0.0117784
rtoes -11.9539 0 0
lowerback -4.77688 3.00446 2.91862
upperback -2.04586 3.87746 0.0235204
thorax 0.758616 1.92973 -1.39095
lowerneck -10.2992 -2.75441 2.86713
upperneck -5.75737 -3.89809 1.68601
head -0.116801 -1.97924 -0.0604693
lclavicle 8.92038e-15 -8.82708e-15 -1.0574e-30
lhumerus -41.2153 -9.43582 92.5539
lradius 44.119 -0 0
lwrist 8.55175 0 0
lhand -15.5538 1.29772 -0.00698302
lfingers 7.12502 -0 0
lthumb 10.631 31.0172 -0.00484736
rclavicle 8.92038e-15 -8.82708e-15 -1.0574e-30
rhumerus -37.608 3.60278 -91.3291
rradius 42.0982 -0 0
rwrist 9.18289 0 0
rhand -25.3286 -21.7149 -0.00282785
rfingers 7.12502 -0 0
rthumb 1.19418 -51.6926 -0.00279822
76
root 6.04327 16.7655 -27.8834 13.0477 3.35268 -4.7585
lfemur -41.0334 15.824 -16.2427
ltibia 51.5247 -0 0
lfoot -20.1467 -0.720017 0.0103855
ltoes 22.6394 -0 0
rfemur -17.7832 1.32614 22.5159
rtibia 29.1423 -0 0
rfoot -25.6191 -20.3259 0.0110583
rtoes -11.7051 0 0
lowerback -4.98423 3.08601 2.84724
upperback -2.14682 3.98403 0.0433327
thorax 0.769275 1.98255 -1.31672
lowerneck -10.354 -2.82641 2.95797
upperneck -5.71748 -4.00567 1.65721
head -0.098666 -2.03371 -0.0881638
lclavicle 1.5594e-14 -6.21158e-15 -9.41137e-31
lhumerus -41.3802 -9.27469 92.3944
lradius 44.1456 -0 0
lwrist 8.63646 0 0
lhand -15.4384 1.29992 -0.00631611
lfingers 7.12502 -0 0
lthumb 10.7423 31.0128 -0.00437443
rclavicle 1.5594e-14 -6.21158e-15 -9.41137e-31
rhumerus -37.4537 3.60821 -91.198
rradius 42.1907 -0 0
rwrist 8.98352 0 0
rhand -25.2786 -21.8159 -0.00300027
rfingers 7.12502 -0 0
rthumb 1.24253 -51.7934 -0.0029661
77
root 6.06724 16.762 -27.8464 13.1651 3.43783 -4.87787
lfemur -41.2659 15.455 -15.8331
ltibia 50.8861 -0 0
lfoot -19.9767 0.630498 0.00570663
ltoes 21.7051 -0 0
rfemur -17.6733 1.26831 22.5814
rtibia 28.9686 -0 0
rfoot -25.794 -20.3658 0.00714123
rtoes -11.4229 0 0
lowerback -5.10951 3.16704 2.79932
upperback -2.22409 4.09151 0.0730832
thorax 0.759399 2.03561 -1.24971
lowerneck -10.3981 -2.90408 3.03855
upperneck -5.67083 -4.11958 1.62891
head -0.0800758 -2.0911 -0.114192
lclavicle 2.07898e-14 -3.58276e-15 -5.29619e-31
lhumerus -41.5545 -9.12227 92.2471
lradius 44.1862 -0 0
lwrist 8.72643 0 0
lhand -15.2076 1.33294 -0.00399736
lfingers 7.12502 -0 0
lthumb 10.9648 31.0314 -0.00276182
rclavicle 2.07898e-14 -3.58276e-15 -5.29619e-31
rhumerus -37.3326 3.59619 -91.0344
rradius 42.3231 -0 0
rwrist 8.77627 0 0
rhand -25.1721 -21.8668 -0.00213509
rfingers 7.12502 -0 0
rthumb 1.34533 -51.8432 -0.00210949
78
root 6.09485 16.7571 -27.8067 13.1351 3.53513 -5.01309
lfemur -41.2921 14.9944 -15.326
ltibia 50.2778 0 0
lfoot -19.8111 1.68624 0
ltoes 20.9875 0 0
rfemur -17.3881 1.00982 22.6557
rtibia 28.7739 0 0
rfoot -26.0104 -20.2173 0
rtoes -11.1354 0 0
lowerback -5.11333 3.24657 2.78724
upperback -2.266 4.19889 0.117514
thorax 0.719507 2.08838 -1.19404
lowerneck -10.4261 -2.98765 3.10389
upperneck -5.6195 -4.23938 1.60034
head -0.0624547 -2.15114 -0.137887
lclavicle 2.34317e-14 -1.19271e-15 0
lhumerus -41.7361 -8.97027 92.116
lradius 44.246 0 0
lwrist 8.8238 0 0
lhand -14.8493 1.40219 0
lfingers 7.12502 0 0
lthumb 11.3101 31.0772 0
rclavicle 2.34317e-14 -1.19271e-15 0
rhumerus -37.2547 3.57508 -90.8297
rradius 42.504 0 0
rwrist 8.58204 0 0
rhand -24.9927 -21.8398 0
rfingers 7.12502 0 0
rthumb 1.5186 -51.8141 0
79
root 6.12592 16.7507 -27.7634 12.9228 3.63022 -5.1763
lfemur -41.0646 14.4469 -14.6965
ltibia 49.6548 -0 0
lfoot -19.6457 2.45164 -0.00412959
ltoes 20.5731 -0 0
rfemur -16.8432 0.527438 22.7579
rtibia 28.474 -0 0
rfoot -26.3157 -19.8694 -0.00955625
rtoes -10.7526 0 0
lowerback -4.96356 3.33183 2.82262
upperback -2.26243 4.31606 0.17698
thorax 0.643318 2.14582 -1.15702
lowerneck -10.4392 -3.07902 3.15545
upperneck -5.56659 -4.3676 1.57263
head -0.0466426 -2.21516 -0.159145
lclavicle 2.2883e-14 1.31644e-15 5.43563e-31
lhumerus -41.9255 -8.83455 91.9976
lradius 44.3247 -0 0
lwrist 8.91746 0 0
lhand -14.3321 1.52228 0.00447204
lfingers 7.12502 -0 0
lthumb 11.8086 31.165 0.00351516
rclavicle 2.2883e-14 1.31644e-15 5.43563e-31
rhumerus -37.2135 3.55359 -90.6026
rradius 42.7326 -0 0
rwrist 8.40723 0 0
rhand -24.7468 -21.7596 -0.000357877
rfingers 7.12502 -0 0
rthumb 1.75611 -51.7317 -0.000381193
